<svg width="241" height="241" viewBox="0 0 241 241" fill="none" xmlns="http://www.w3.org/2000/svg">
<mask id="mask0_0_1" style="mask-type:alpha" maskUnits="userSpaceOnUse" x="-105" y="-355" width="447" height="963">
<rect x="-105" y="-355" width="447" height="963" fill="url(#paint0_linear_0_1)"/>
</mask>
<g mask="url(#mask0_0_1)">
<rect x="-131" y="-396" width="500" height="1076" rx="41" fill="url(#paint1_linear_0_1)"/>
<g filter="url(#filter0_f_0_1)">
<circle cx="119" cy="480" r="166" fill="#384681"/>
</g>
</g>
<circle cx="120.5" cy="120.5" r="120.5" fill="url(#paint2_linear_0_1)"/>
<mask id="mask1_0_1" style="mask-type:alpha" maskUnits="userSpaceOnUse" x="27" y="76" width="187" height="83">
<path d="M120.456 76.9148C158.993 76.9148 193.052 96.0816 213.625 125.401C193.053 148.211 158.993 158.958 120.456 158.958C81.9183 158.958 47.8596 148.211 27.2866 125.401C47.8596 96.0817 81.9185 76.9149 120.456 76.9148Z" fill="white"/>
</mask>
<g mask="url(#mask1_0_1)">
<mask id="path-6-inside-1_0_1" fill="white">
<path d="M120.456 76.9148C158.993 76.9148 193.052 96.0816 213.625 125.401C193.053 148.211 158.993 158.958 120.456 158.958C81.9183 158.958 47.8596 148.211 27.2866 125.401C47.8596 96.0817 81.9185 76.9149 120.456 76.9148Z"/>
</mask>
<path d="M120.456 76.9148C158.993 76.9148 193.052 96.0816 213.625 125.401C193.053 148.211 158.993 158.958 120.456 158.958C81.9183 158.958 47.8596 148.211 27.2866 125.401C47.8596 96.0817 81.9185 76.9149 120.456 76.9148Z" fill="url(#paint3_linear_0_1)"/>
<path d="M120.456 76.9148V75.9148V76.9148ZM213.625 125.401L214.368 126.071L214.902 125.479L214.444 124.827L213.625 125.401ZM120.456 158.958V159.958V158.958ZM27.2866 125.401L26.468 124.827L26.0103 125.479L26.544 126.071L27.2866 125.401ZM120.456 76.9148V77.9148C158.653 77.9148 192.413 96.9113 212.807 125.976L213.625 125.401L214.444 124.827C193.692 95.2519 159.333 75.9148 120.456 75.9148V76.9148ZM213.625 125.401L212.883 124.731C192.573 147.249 158.843 157.958 120.456 157.958V158.958V159.958C159.143 159.958 193.532 149.173 214.368 126.071L213.625 125.401ZM120.456 158.958V157.958C82.0685 157.958 48.3388 147.249 28.0292 124.731L27.2866 125.401L26.544 126.071C47.3803 149.173 81.7681 159.958 120.456 159.958V158.958ZM27.2866 125.401L28.1052 125.976C48.499 96.9114 82.2582 77.9149 120.456 77.9148V76.9148V75.9148C81.5788 75.9149 47.2202 95.252 26.468 124.827L27.2866 125.401Z" fill="#597AFF" mask="url(#path-6-inside-1_0_1)"/>
<g filter="url(#filter1_d_0_1)">
<circle cx="120.5" cy="105.585" r="41.0213" fill="url(#paint4_linear_0_1)"/>
<circle cx="120.5" cy="105.585" r="42.3032" stroke="white" stroke-width="2.56383"/>
</g>
<g filter="url(#filter2_f_0_1)">
<circle cx="120.5" cy="105.585" r="42.3032" stroke="white" stroke-width="2.56383"/>
</g>
<g filter="url(#filter3_f_0_1)">
<circle cx="120.5" cy="95.3298" r="33.3298" fill="url(#paint5_linear_0_1)"/>
</g>
<circle cx="120.5" cy="95.3298" r="33.3298" fill="url(#paint6_linear_0_1)"/>
<g filter="url(#filter4_d_0_1)">
<path d="M153.457 111.649L153.597 115.443C153.607 115.728 153.836 115.957 154.12 115.967L157.915 116.106L154.12 116.245C153.836 116.256 153.607 116.484 153.597 116.769L153.457 120.564L153.318 116.769C153.308 116.484 153.079 116.256 152.794 116.245L149 116.106L152.794 115.967C153.079 115.957 153.308 115.728 153.318 115.443L153.457 111.649Z" fill="white"/>
</g>
<g filter="url(#filter5_d_0_1)">
<path d="M99.4574 79.6489L99.5965 83.4433C99.607 83.7283 99.8355 83.9569 100.12 83.9673L103.915 84.1064L100.12 84.2454C99.8355 84.2559 99.607 84.4845 99.5965 84.7694L99.4574 88.5638L99.3184 84.7694C99.3079 84.4845 99.0794 84.2559 98.7944 84.2454L95 84.1064L98.7944 83.9673C99.0794 83.9569 99.3079 83.7283 99.3184 83.4433L99.4574 79.6489Z" fill="white"/>
</g>
<g filter="url(#filter6_d_0_1)">
<path d="M107.457 94L107.597 97.7944C107.607 98.0794 107.836 98.3079 108.12 98.3184L111.915 98.4574L108.12 98.5965C107.836 98.607 107.607 98.8355 107.597 99.1205L107.457 102.915L107.318 99.1205C107.308 98.8355 107.079 98.607 106.794 98.5965L103 98.4574L106.794 98.3184C107.079 98.3079 107.308 98.0794 107.318 97.7944L107.457 94Z" fill="white"/>
</g>
<g filter="url(#filter7_d_0_1)">
<path d="M112.457 110L112.597 113.794C112.607 114.079 112.836 114.308 113.12 114.318L116.915 114.457L113.12 114.597C112.836 114.607 112.607 114.836 112.597 115.12L112.457 118.915L112.318 115.12C112.308 114.836 112.079 114.607 111.794 114.597L108 114.457L111.794 114.318C112.079 114.308 112.308 114.079 112.318 113.794L112.457 110Z" fill="white"/>
</g>
<g filter="url(#filter8_d_0_1)">
<path d="M93.4574 82.6489L93.5029 83.8896C93.5063 83.9827 93.5811 84.0575 93.6742 84.0609L94.9149 84.1064L93.6742 84.1518C93.5811 84.1553 93.5063 84.23 93.5029 84.3232L93.4574 85.5638L93.412 84.3232C93.4086 84.23 93.3338 84.1553 93.2407 84.1518L92 84.1064L93.2407 84.0609C93.3338 84.0575 93.4086 83.9827 93.412 83.8896L93.4574 82.6489Z" fill="white"/>
</g>
<g filter="url(#filter9_d_0_1)">
<path d="M108.457 78.6489L108.503 79.8896C108.506 79.9827 108.581 80.0575 108.674 80.0609L109.915 80.1064L108.674 80.1518C108.581 80.1553 108.506 80.23 108.503 80.3232L108.457 81.5638L108.412 80.3232C108.409 80.23 108.334 80.1553 108.241 80.1518L107 80.1064L108.241 80.0609C108.334 80.0575 108.409 79.9827 108.412 79.8896L108.457 78.6489Z" fill="white"/>
</g>
<g filter="url(#filter10_d_0_1)">
<path d="M105.457 88.6489L105.503 89.8896C105.506 89.9827 105.581 90.0575 105.674 90.0609L106.915 90.1064L105.674 90.1518C105.581 90.1553 105.506 90.23 105.503 90.3232L105.457 91.5638L105.412 90.3232C105.409 90.23 105.334 90.1553 105.241 90.1518L104 90.1064L105.241 90.0609C105.334 90.0575 105.409 89.9827 105.412 89.8896L105.457 88.6489Z" fill="white"/>
</g>
<g filter="url(#filter11_d_0_1)">
<path d="M124.457 76.6489L124.503 77.8896C124.506 77.9827 124.581 78.0575 124.674 78.0609L125.915 78.1064L124.674 78.1518C124.581 78.1553 124.506 78.23 124.503 78.3232L124.457 79.5638L124.412 78.3232C124.409 78.23 124.334 78.1553 124.241 78.1518L123 78.1064L124.241 78.0609C124.334 78.0575 124.409 77.9827 124.412 77.8896L124.457 76.6489Z" fill="white"/>
</g>
<g filter="url(#filter12_d_0_1)">
<path d="M136.457 94.6489L136.503 95.8896C136.506 95.9827 136.581 96.0575 136.674 96.0609L137.915 96.1064L136.674 96.1518C136.581 96.1553 136.506 96.23 136.503 96.3232L136.457 97.5638L136.412 96.3232C136.409 96.23 136.334 96.1553 136.241 96.1518L135 96.1064L136.241 96.0609C136.334 96.0575 136.409 95.9827 136.412 95.8896L136.457 94.6489Z" fill="white"/>
</g>
<g filter="url(#filter13_d_0_1)">
<path d="M138.457 85.6489L138.503 86.8896C138.506 86.9827 138.581 87.0575 138.674 87.0609L139.915 87.1064L138.674 87.1518C138.581 87.1553 138.506 87.23 138.503 87.3232L138.457 88.5638L138.412 87.3232C138.409 87.23 138.334 87.1553 138.241 87.1518L137 87.1064L138.241 87.0609C138.334 87.0575 138.409 86.9827 138.412 86.8896L138.457 85.6489Z" fill="white"/>
</g>
<g filter="url(#filter14_d_0_1)">
<path d="M94.4574 90.6489L94.5029 91.8896C94.5063 91.9827 94.5811 92.0575 94.6742 92.0609L95.9149 92.1064L94.6742 92.1518C94.5811 92.1553 94.5063 92.23 94.5029 92.3232L94.4574 93.5638L94.412 92.3232C94.4086 92.23 94.3338 92.1553 94.2407 92.1518L93 92.1064L94.2407 92.0609C94.3338 92.0575 94.4086 91.9827 94.412 91.8896L94.4574 90.6489Z" fill="white"/>
</g>
<g filter="url(#filter15_d_0_1)">
<path d="M86.4574 89.6489L86.5029 90.8896C86.5063 90.9827 86.5811 91.0575 86.6742 91.0609L87.9149 91.1064L86.6742 91.1518C86.5811 91.1553 86.5063 91.23 86.5029 91.3232L86.4574 92.5638L86.412 91.3232C86.4086 91.23 86.3338 91.1553 86.2407 91.1518L85 91.1064L86.2407 91.0609C86.3338 91.0575 86.4086 90.9827 86.412 90.8896L86.4574 89.6489Z" fill="white"/>
</g>
<g filter="url(#filter16_d_0_1)">
<path d="M84.4574 97.6489L84.5029 98.8896C84.5063 98.9827 84.5811 99.0575 84.6742 99.0609L85.9149 99.1064L84.6742 99.1518C84.5811 99.1553 84.5063 99.23 84.5029 99.3232L84.4574 100.564L84.412 99.3232C84.4086 99.23 84.3338 99.1553 84.2407 99.1518L83 99.1064L84.2407 99.0609C84.3338 99.0575 84.4086 98.9827 84.412 98.8896L84.4574 97.6489Z" fill="white"/>
</g>
<g filter="url(#filter17_d_0_1)">
<path d="M101.457 74.6489L101.503 75.8896C101.506 75.9827 101.581 76.0575 101.674 76.0609L102.915 76.1064L101.674 76.1518C101.581 76.1553 101.506 76.23 101.503 76.3232L101.457 77.5638L101.412 76.3232C101.409 76.23 101.334 76.1553 101.241 76.1518L100 76.1064L101.241 76.0609C101.334 76.0575 101.409 75.9827 101.412 75.8896L101.457 74.6489Z" fill="white"/>
</g>
<g filter="url(#filter18_d_0_1)">
<path d="M111.457 90.6489L111.503 91.8896C111.506 91.9827 111.581 92.0575 111.674 92.0609L112.915 92.1064L111.674 92.1518C111.581 92.1553 111.506 92.23 111.503 92.3232L111.457 93.5638L111.412 92.3232C111.409 92.23 111.334 92.1553 111.241 92.1518L110 92.1064L111.241 92.0609C111.334 92.0575 111.409 91.9827 111.412 91.8896L111.457 90.6489Z" fill="white"/>
</g>
<g filter="url(#filter19_d_0_1)">
<path d="M89.4574 111.649L89.5029 112.89C89.5063 112.983 89.5811 113.057 89.6742 113.061L90.9149 113.106L89.6742 113.152C89.5811 113.155 89.5063 113.23 89.5029 113.323L89.4574 114.564L89.412 113.323C89.4086 113.23 89.3338 113.155 89.2407 113.152L88 113.106L89.2407 113.061C89.3338 113.057 89.4086 112.983 89.412 112.89L89.4574 111.649Z" fill="white"/>
</g>
<g filter="url(#filter20_d_0_1)">
<path d="M90.4574 120L90.5029 121.241C90.5063 121.334 90.5811 121.409 90.6742 121.412L91.9149 121.457L90.6742 121.503C90.5811 121.506 90.5063 121.581 90.5029 121.674L90.4574 122.915L90.412 121.674C90.4086 121.581 90.3338 121.506 90.2407 121.503L89 121.457L90.2407 121.412C90.3338 121.409 90.4086 121.334 90.412 121.241L90.4574 120Z" fill="white"/>
</g>
<g filter="url(#filter21_d_0_1)">
<path d="M142.457 109.649L142.503 110.89C142.506 110.983 142.581 111.057 142.674 111.061L143.915 111.106L142.674 111.152C142.581 111.155 142.506 111.23 142.503 111.323L142.457 112.564L142.412 111.323C142.409 111.23 142.334 111.155 142.241 111.152L141 111.106L142.241 111.061C142.334 111.057 142.409 110.983 142.412 110.89L142.457 109.649Z" fill="white"/>
</g>
<g filter="url(#filter22_d_0_1)">
<path d="M157.457 102.649L157.503 103.89C157.506 103.983 157.581 104.057 157.674 104.061L158.915 104.106L157.674 104.152C157.581 104.155 157.506 104.23 157.503 104.323L157.457 105.564L157.412 104.323C157.409 104.23 157.334 104.155 157.241 104.152L156 104.106L157.241 104.061C157.334 104.057 157.409 103.983 157.412 103.89L157.457 102.649Z" fill="white"/>
</g>
<g filter="url(#filter23_d_0_1)">
<path d="M100.457 93.6489L100.503 94.8896C100.506 94.9827 100.581 95.0575 100.674 95.0609L101.915 95.1064L100.674 95.1518C100.581 95.1553 100.506 95.23 100.503 95.3232L100.457 96.5638L100.412 95.3232C100.409 95.23 100.334 95.1553 100.241 95.1518L99 95.1064L100.241 95.0609C100.334 95.0575 100.409 94.9827 100.412 94.8896L100.457 93.6489Z" fill="white"/>
</g>
<g filter="url(#filter24_d_0_1)">
<path d="M128.457 113L128.597 116.794C128.607 117.079 128.836 117.308 129.12 117.318L132.915 117.457L129.12 117.597C128.836 117.607 128.607 117.836 128.597 118.12L128.457 121.915L128.318 118.12C128.308 117.836 128.079 117.607 127.794 117.597L124 117.457L127.794 117.318C128.079 117.308 128.308 117.079 128.318 116.794L128.457 113Z" fill="white"/>
</g>
<g filter="url(#filter25_d_0_1)">
<path d="M136.457 102L136.597 105.794C136.607 106.079 136.836 106.308 137.12 106.318L140.915 106.457L137.12 106.597C136.836 106.607 136.607 106.836 136.597 107.12L136.457 110.915L136.318 107.12C136.308 106.836 136.079 106.607 135.794 106.597L132 106.457L135.794 106.318C136.079 106.308 136.308 106.079 136.318 105.794L136.457 102Z" fill="white"/>
</g>
<g filter="url(#filter26_d_0_1)">
<path d="M148.457 101.649L148.597 105.443C148.607 105.728 148.836 105.957 149.12 105.967L152.915 106.106L149.12 106.245C148.836 106.256 148.607 106.484 148.597 106.769L148.457 110.564L148.318 106.769C148.308 106.484 148.079 106.256 147.794 106.245L144 106.106L147.794 105.967C148.079 105.957 148.308 105.728 148.318 105.443L148.457 101.649Z" fill="white"/>
</g>
<g filter="url(#filter27_d_0_1)">
<path d="M126.457 85.6489L126.597 89.4433C126.607 89.7283 126.836 89.9569 127.12 89.9673L130.915 90.1064L127.12 90.2454C126.836 90.2559 126.607 90.4845 126.597 90.7694L126.457 94.5638L126.318 90.7694C126.308 90.4845 126.079 90.2559 125.794 90.2454L122 90.1064L125.794 89.9673C126.079 89.9569 126.308 89.7283 126.318 89.4433L126.457 85.6489Z" fill="white"/>
</g>
<g filter="url(#filter28_d_0_1)">
<path d="M136.457 75.6489L136.597 79.4433C136.607 79.7283 136.836 79.9569 137.12 79.9673L140.915 80.1064L137.12 80.2454C136.836 80.2559 136.607 80.4845 136.597 80.7694L136.457 84.5638L136.318 80.7694C136.308 80.4845 136.079 80.2559 135.794 80.2454L132 80.1064L135.794 79.9673C136.079 79.9569 136.308 79.7283 136.318 79.4433L136.457 75.6489Z" fill="white"/>
</g>
<g filter="url(#filter29_d_0_1)">
<path d="M114.457 75.6489L114.597 79.4433C114.607 79.7283 114.836 79.9569 115.12 79.9673L118.915 80.1064L115.12 80.2454C114.836 80.2559 114.607 80.4845 114.597 80.7694L114.457 84.5638L114.318 80.7694C114.308 80.4845 114.079 80.2559 113.794 80.2454L110 80.1064L113.794 79.9673C114.079 79.9569 114.308 79.7283 114.318 79.4433L114.457 75.6489Z" fill="white"/>
</g>
<g filter="url(#filter30_d_0_1)">
<path d="M90.4574 94.6489L90.5965 98.4433C90.607 98.7283 90.8355 98.9569 91.1205 98.9673L94.9149 99.1064L91.1205 99.2454C90.8355 99.2559 90.607 99.4845 90.5965 99.7694L90.4574 103.564L90.3184 99.7694C90.3079 99.4845 90.0794 99.2559 89.7944 99.2454L86 99.1064L89.7944 98.9673C90.0794 98.9569 90.3079 98.7283 90.3184 98.4433L90.4574 94.6489Z" fill="white"/>
</g>
<path d="M133.319 105.585C133.319 108.695 132.188 111.699 130.137 114.038C128.087 116.376 125.256 117.889 122.172 118.295C119.089 118.7 115.963 117.971 113.377 116.243C110.791 114.515 108.922 111.906 108.117 108.901C107.312 105.897 107.628 102.703 109.004 99.9135C110.38 97.1243 112.723 94.9304 115.596 93.7408C118.47 92.5511 121.678 92.4467 124.623 93.4471C127.568 94.4474 130.049 96.4843 131.603 99.1782L120.5 105.585H133.319Z" fill="#001C59"/>
<circle cx="120.5" cy="105.585" r="25.6383" stroke="#2540A9" stroke-width="10.2553" stroke-dasharray="5.13 5.13"/>
<g filter="url(#filter31_d_0_1)">
<circle cx="148" cy="89" r="11" fill="white"/>
</g>
<mask id="path-43-inside-2_0_1" fill="white">
<path d="M121.367 82.0425C159.905 82.0425 193.964 101.209 214.537 130.529C193.964 153.339 159.905 164.085 121.367 164.085C82.8296 164.085 48.7702 153.339 28.1973 130.529C48.7703 101.209 82.8298 82.0425 121.367 82.0425Z"/>
</mask>
<path d="M121.367 82.0425V71.7872V82.0425ZM214.537 130.529L222.153 137.397L227.626 131.328L222.932 124.638L214.537 130.529ZM121.367 164.085V174.341V164.085ZM28.1973 130.529L19.8024 124.638L15.1081 131.328L20.5818 137.397L28.1973 130.529ZM121.367 82.0425V92.2978C156.421 92.2978 187.407 109.718 206.142 136.419L214.537 130.529L222.932 124.638C200.522 92.7003 163.388 71.7872 121.367 71.7872V82.0425ZM214.537 130.529L206.922 123.66C189.05 143.476 158.364 153.83 121.367 153.83V164.085V174.341C161.445 174.341 198.879 163.202 222.153 137.397L214.537 130.529ZM121.367 164.085V153.83C84.3699 153.83 53.6846 143.476 35.8127 123.66L28.1973 130.529L20.5818 137.397C43.8558 163.202 81.2893 174.341 121.367 174.341V164.085ZM28.1973 130.529L36.5921 136.419C55.3279 109.718 86.3134 92.2978 121.367 92.2978V82.0425V71.7872C79.3463 71.7872 42.2127 92.7003 19.8024 124.638L28.1973 130.529Z" fill="#597AFF" fill-opacity="0.15" mask="url(#path-43-inside-2_0_1)"/>
<mask id="path-45-inside-3_0_1" fill="white">
<path d="M120.456 76.9148C158.993 76.9148 193.052 96.0816 213.625 125.401C193.053 148.211 158.993 158.958 120.456 158.958C81.9183 158.958 47.8596 148.211 27.2866 125.401C47.8596 96.0817 81.9185 76.9149 120.456 76.9148Z"/>
</mask>
<path d="M120.456 76.9148V69.2233H120.456L120.456 76.9148ZM213.625 125.401L219.337 130.553L223.442 126.001L219.922 120.983L213.625 125.401ZM120.456 158.958L120.456 166.649H120.456V158.958ZM27.2866 125.401L20.9905 120.983L17.4697 126.001L21.5751 130.553L27.2866 125.401ZM120.456 76.9148V84.6063C156.38 84.6063 188.134 102.463 207.329 129.819L213.625 125.401L219.922 120.983C197.971 89.6999 161.606 69.2233 120.456 69.2233V76.9148ZM213.625 125.401L207.914 120.25C189.367 140.814 157.838 151.266 120.456 151.266V158.958V166.649C160.148 166.649 196.738 155.609 219.337 130.553L213.625 125.401ZM120.456 158.958L120.456 151.266C83.0736 151.266 51.5454 140.814 32.9982 120.25L27.2866 125.401L21.5751 130.553C44.1737 155.608 80.763 166.649 120.456 166.649L120.456 158.958ZM27.2866 125.401L33.5827 129.819C52.7778 102.463 84.5312 84.6064 120.456 84.6063L120.456 76.9148L120.456 69.2233C79.3057 69.2234 42.9414 89.7002 20.9905 120.983L27.2866 125.401Z" fill="#597AFF" mask="url(#path-45-inside-3_0_1)"/>
</g>
<g filter="url(#filter32_d_0_1)">
<path d="M115.463 54.6338C119.139 63.7775 120.747 69.1588 121.235 76.9209C126.658 76.9573 131.991 77.3723 137.208 78.1426C142.66 71.7325 142.281 66.678 141.019 58.1611C143.176 66.9722 143.783 71.8439 142.69 79.0898C147.823 80.1071 152.831 81.4695 157.69 83.1523C164.361 77.411 164.818 72.2099 164.957 63.2705C165.67 72.7162 165.457 77.7613 163.069 85.168C168.571 87.3927 173.857 90.0375 178.892 93.0586C182.643 89.0032 183.084 84.5749 183.377 77.8535C183.774 85.2713 183.598 89.7581 182.014 95.001C186.646 97.9885 191.047 101.304 195.185 104.913C201.745 101.766 203.378 97.3185 205.545 89.8447C203.979 98.2001 202.592 102.648 198.859 108.262C204.326 113.466 209.279 119.206 213.626 125.401C193.053 148.211 158.993 158.958 120.456 158.958C81.919 158.958 47.8601 148.211 27.2871 125.401C31.6557 119.176 36.6333 113.409 42.1318 108.185C38.5383 103.106 34.0884 101.975 27.0273 100.632C35.1946 101.377 39.7261 102.298 45.3691 105.225C49.7929 101.333 54.521 97.7801 59.5137 94.6055C55.8568 88.3086 51.0028 86.3873 43.0947 83.7773C52.4064 85.9661 57.3277 87.7043 63.7373 92.0479C68.0343 89.5707 72.5082 87.3668 77.1357 85.459C74.8981 79.3255 70.6951 76.2048 64.0576 71.7686C71.8639 76.0757 76.2437 79.0174 80.8867 83.9883C85.7561 82.1811 90.7825 80.6967 95.9404 79.5635C96.8927 71.8027 94.0546 67.2022 89.0166 60.0293C95.0793 67.2511 98.07 71.6321 100.662 78.6328C105.774 77.7356 111.004 77.1802 116.327 76.9902C119.651 69.2551 118.26 63.6481 115.463 54.6338ZM120.456 84.6064C86.8181 84.6065 56.8368 100.263 37.3984 124.714C56.3191 142.325 85.8838 151.267 120.456 151.267C155.028 151.267 184.593 142.325 203.514 124.714C184.075 100.263 154.094 84.6066 120.456 84.6064Z" fill="#8099FF"/>
</g>
<defs>
<filter id="filter0_f_0_1" x="-231.23" y="129.77" width="700.46" height="700.46" filterUnits="userSpaceOnUse" color-interpolation-filters="sRGB">
<feFlood flood-opacity="0" result="BackgroundImageFix"/>
<feBlend mode="normal" in="SourceGraphic" in2="BackgroundImageFix" result="shape"/>
<feGaussianBlur stdDeviation="92.1149" result="effect1_foregroundBlur_0_1"/>
</filter>
<filter id="filter1_d_0_1" x="72.9146" y="62" width="95.1704" height="95.1702" filterUnits="userSpaceOnUse" color-interpolation-filters="sRGB">
<feFlood flood-opacity="0" result="BackgroundImageFix"/>
<feColorMatrix in="SourceAlpha" type="matrix" values="0 0 0 0 0 0 0 0 0 0 0 0 0 0 0 0 0 0 127 0" result="hardAlpha"/>
<feOffset dy="4"/>
<feGaussianBlur stdDeviation="2"/>
<feComposite in2="hardAlpha" operator="out"/>
<feColorMatrix type="matrix" values="0 0 0 0 0 0 0 0 0 0 0 0 0 0 0 0 0 0 0.25 0"/>
<feBlend mode="normal" in2="BackgroundImageFix" result="effect1_dropShadow_0_1"/>
<feBlend mode="normal" in="SourceGraphic" in2="effect1_dropShadow_0_1" result="shape"/>
</filter>
<filter id="filter2_f_0_1" x="69.7146" y="54.8" width="101.57" height="101.57" filterUnits="userSpaceOnUse" color-interpolation-filters="sRGB">
<feFlood flood-opacity="0" result="BackgroundImageFix"/>
<feBlend mode="normal" in="SourceGraphic" in2="BackgroundImageFix" result="shape"/>
<feGaussianBlur stdDeviation="3.6" result="effect1_foregroundBlur_0_1"/>
</filter>
<filter id="filter3_f_0_1" x="81.8704" y="56.7" width="77.2597" height="77.2597" filterUnits="userSpaceOnUse" color-interpolation-filters="sRGB">
<feFlood flood-opacity="0" result="BackgroundImageFix"/>
<feBlend mode="normal" in="SourceGraphic" in2="BackgroundImageFix" result="shape"/>
<feGaussianBlur stdDeviation="2.65" result="effect1_foregroundBlur_0_1"/>
</filter>
<filter id="filter4_d_0_1" x="148.1" y="110.749" width="10.715" height="10.7148" filterUnits="userSpaceOnUse" color-interpolation-filters="sRGB">
<feFlood flood-opacity="0" result="BackgroundImageFix"/>
<feColorMatrix in="SourceAlpha" type="matrix" values="0 0 0 0 0 0 0 0 0 0 0 0 0 0 0 0 0 0 127 0" result="hardAlpha"/>
<feOffset/>
<feGaussianBlur stdDeviation="0.45"/>
<feComposite in2="hardAlpha" operator="out"/>
<feColorMatrix type="matrix" values="0 0 0 0 1 0 0 0 0 1 0 0 0 0 1 0 0 0 1 0"/>
<feBlend mode="normal" in2="BackgroundImageFix" result="effect1_dropShadow_0_1"/>
<feBlend mode="normal" in="SourceGraphic" in2="effect1_dropShadow_0_1" result="shape"/>
</filter>
<filter id="filter5_d_0_1" x="94.1" y="78.7489" width="10.715" height="10.7148" filterUnits="userSpaceOnUse" color-interpolation-filters="sRGB">
<feFlood flood-opacity="0" result="BackgroundImageFix"/>
<feColorMatrix in="SourceAlpha" type="matrix" values="0 0 0 0 0 0 0 0 0 0 0 0 0 0 0 0 0 0 127 0" result="hardAlpha"/>
<feOffset/>
<feGaussianBlur stdDeviation="0.45"/>
<feComposite in2="hardAlpha" operator="out"/>
<feColorMatrix type="matrix" values="0 0 0 0 1 0 0 0 0 1 0 0 0 0 1 0 0 0 1 0"/>
<feBlend mode="normal" in2="BackgroundImageFix" result="effect1_dropShadow_0_1"/>
<feBlend mode="normal" in="SourceGraphic" in2="effect1_dropShadow_0_1" result="shape"/>
</filter>
<filter id="filter6_d_0_1" x="102.1" y="93.1" width="10.715" height="10.7148" filterUnits="userSpaceOnUse" color-interpolation-filters="sRGB">
<feFlood flood-opacity="0" result="BackgroundImageFix"/>
<feColorMatrix in="SourceAlpha" type="matrix" values="0 0 0 0 0 0 0 0 0 0 0 0 0 0 0 0 0 0 127 0" result="hardAlpha"/>
<feOffset/>
<feGaussianBlur stdDeviation="0.45"/>
<feComposite in2="hardAlpha" operator="out"/>
<feColorMatrix type="matrix" values="0 0 0 0 1 0 0 0 0 1 0 0 0 0 1 0 0 0 1 0"/>
<feBlend mode="normal" in2="BackgroundImageFix" result="effect1_dropShadow_0_1"/>
<feBlend mode="normal" in="SourceGraphic" in2="effect1_dropShadow_0_1" result="shape"/>
</filter>
<filter id="filter7_d_0_1" x="107.1" y="109.1" width="10.715" height="10.7148" filterUnits="userSpaceOnUse" color-interpolation-filters="sRGB">
<feFlood flood-opacity="0" result="BackgroundImageFix"/>
<feColorMatrix in="SourceAlpha" type="matrix" values="0 0 0 0 0 0 0 0 0 0 0 0 0 0 0 0 0 0 127 0" result="hardAlpha"/>
<feOffset/>
<feGaussianBlur stdDeviation="0.45"/>
<feComposite in2="hardAlpha" operator="out"/>
<feColorMatrix type="matrix" values="0 0 0 0 1 0 0 0 0 1 0 0 0 0 1 0 0 0 1 0"/>
<feBlend mode="normal" in2="BackgroundImageFix" result="effect1_dropShadow_0_1"/>
<feBlend mode="normal" in="SourceGraphic" in2="effect1_dropShadow_0_1" result="shape"/>
</filter>
<filter id="filter8_d_0_1" x="91.7057" y="82.3547" width="3.50358" height="3.50334" filterUnits="userSpaceOnUse" color-interpolation-filters="sRGB">
<feFlood flood-opacity="0" result="BackgroundImageFix"/>
<feColorMatrix in="SourceAlpha" type="matrix" values="0 0 0 0 0 0 0 0 0 0 0 0 0 0 0 0 0 0 127 0" result="hardAlpha"/>
<feOffset/>
<feGaussianBlur stdDeviation="0.147136"/>
<feComposite in2="hardAlpha" operator="out"/>
<feColorMatrix type="matrix" values="0 0 0 0 1 0 0 0 0 1 0 0 0 0 1 0 0 0 1 0"/>
<feBlend mode="normal" in2="BackgroundImageFix" result="effect1_dropShadow_0_1"/>
<feBlend mode="normal" in="SourceGraphic" in2="effect1_dropShadow_0_1" result="shape"/>
</filter>
<filter id="filter9_d_0_1" x="106.706" y="78.3547" width="3.50358" height="3.50334" filterUnits="userSpaceOnUse" color-interpolation-filters="sRGB">
<feFlood flood-opacity="0" result="BackgroundImageFix"/>
<feColorMatrix in="SourceAlpha" type="matrix" values="0 0 0 0 0 0 0 0 0 0 0 0 0 0 0 0 0 0 127 0" result="hardAlpha"/>
<feOffset/>
<feGaussianBlur stdDeviation="0.147136"/>
<feComposite in2="hardAlpha" operator="out"/>
<feColorMatrix type="matrix" values="0 0 0 0 1 0 0 0 0 1 0 0 0 0 1 0 0 0 1 0"/>
<feBlend mode="normal" in2="BackgroundImageFix" result="effect1_dropShadow_0_1"/>
<feBlend mode="normal" in="SourceGraphic" in2="effect1_dropShadow_0_1" result="shape"/>
</filter>
<filter id="filter10_d_0_1" x="103.706" y="88.3547" width="3.50358" height="3.50334" filterUnits="userSpaceOnUse" color-interpolation-filters="sRGB">
<feFlood flood-opacity="0" result="BackgroundImageFix"/>
<feColorMatrix in="SourceAlpha" type="matrix" values="0 0 0 0 0 0 0 0 0 0 0 0 0 0 0 0 0 0 127 0" result="hardAlpha"/>
<feOffset/>
<feGaussianBlur stdDeviation="0.147136"/>
<feComposite in2="hardAlpha" operator="out"/>
<feColorMatrix type="matrix" values="0 0 0 0 1 0 0 0 0 1 0 0 0 0 1 0 0 0 1 0"/>
<feBlend mode="normal" in2="BackgroundImageFix" result="effect1_dropShadow_0_1"/>
<feBlend mode="normal" in="SourceGraphic" in2="effect1_dropShadow_0_1" result="shape"/>
</filter>
<filter id="filter11_d_0_1" x="122.706" y="76.3547" width="3.50358" height="3.50334" filterUnits="userSpaceOnUse" color-interpolation-filters="sRGB">
<feFlood flood-opacity="0" result="BackgroundImageFix"/>
<feColorMatrix in="SourceAlpha" type="matrix" values="0 0 0 0 0 0 0 0 0 0 0 0 0 0 0 0 0 0 127 0" result="hardAlpha"/>
<feOffset/>
<feGaussianBlur stdDeviation="0.147136"/>
<feComposite in2="hardAlpha" operator="out"/>
<feColorMatrix type="matrix" values="0 0 0 0 1 0 0 0 0 1 0 0 0 0 1 0 0 0 1 0"/>
<feBlend mode="normal" in2="BackgroundImageFix" result="effect1_dropShadow_0_1"/>
<feBlend mode="normal" in="SourceGraphic" in2="effect1_dropShadow_0_1" result="shape"/>
</filter>
<filter id="filter12_d_0_1" x="134.706" y="94.3547" width="3.50358" height="3.50334" filterUnits="userSpaceOnUse" color-interpolation-filters="sRGB">
<feFlood flood-opacity="0" result="BackgroundImageFix"/>
<feColorMatrix in="SourceAlpha" type="matrix" values="0 0 0 0 0 0 0 0 0 0 0 0 0 0 0 0 0 0 127 0" result="hardAlpha"/>
<feOffset/>
<feGaussianBlur stdDeviation="0.147136"/>
<feComposite in2="hardAlpha" operator="out"/>
<feColorMatrix type="matrix" values="0 0 0 0 1 0 0 0 0 1 0 0 0 0 1 0 0 0 1 0"/>
<feBlend mode="normal" in2="BackgroundImageFix" result="effect1_dropShadow_0_1"/>
<feBlend mode="normal" in="SourceGraphic" in2="effect1_dropShadow_0_1" result="shape"/>
</filter>
<filter id="filter13_d_0_1" x="136.706" y="85.3547" width="3.50358" height="3.50334" filterUnits="userSpaceOnUse" color-interpolation-filters="sRGB">
<feFlood flood-opacity="0" result="BackgroundImageFix"/>
<feColorMatrix in="SourceAlpha" type="matrix" values="0 0 0 0 0 0 0 0 0 0 0 0 0 0 0 0 0 0 127 0" result="hardAlpha"/>
<feOffset/>
<feGaussianBlur stdDeviation="0.147136"/>
<feComposite in2="hardAlpha" operator="out"/>
<feColorMatrix type="matrix" values="0 0 0 0 1 0 0 0 0 1 0 0 0 0 1 0 0 0 1 0"/>
<feBlend mode="normal" in2="BackgroundImageFix" result="effect1_dropShadow_0_1"/>
<feBlend mode="normal" in="SourceGraphic" in2="effect1_dropShadow_0_1" result="shape"/>
</filter>
<filter id="filter14_d_0_1" x="92.7057" y="90.3547" width="3.50358" height="3.50334" filterUnits="userSpaceOnUse" color-interpolation-filters="sRGB">
<feFlood flood-opacity="0" result="BackgroundImageFix"/>
<feColorMatrix in="SourceAlpha" type="matrix" values="0 0 0 0 0 0 0 0 0 0 0 0 0 0 0 0 0 0 127 0" result="hardAlpha"/>
<feOffset/>
<feGaussianBlur stdDeviation="0.147136"/>
<feComposite in2="hardAlpha" operator="out"/>
<feColorMatrix type="matrix" values="0 0 0 0 1 0 0 0 0 1 0 0 0 0 1 0 0 0 1 0"/>
<feBlend mode="normal" in2="BackgroundImageFix" result="effect1_dropShadow_0_1"/>
<feBlend mode="normal" in="SourceGraphic" in2="effect1_dropShadow_0_1" result="shape"/>
</filter>
<filter id="filter15_d_0_1" x="84.7057" y="89.3547" width="3.50358" height="3.50334" filterUnits="userSpaceOnUse" color-interpolation-filters="sRGB">
<feFlood flood-opacity="0" result="BackgroundImageFix"/>
<feColorMatrix in="SourceAlpha" type="matrix" values="0 0 0 0 0 0 0 0 0 0 0 0 0 0 0 0 0 0 127 0" result="hardAlpha"/>
<feOffset/>
<feGaussianBlur stdDeviation="0.147136"/>
<feComposite in2="hardAlpha" operator="out"/>
<feColorMatrix type="matrix" values="0 0 0 0 1 0 0 0 0 1 0 0 0 0 1 0 0 0 1 0"/>
<feBlend mode="normal" in2="BackgroundImageFix" result="effect1_dropShadow_0_1"/>
<feBlend mode="normal" in="SourceGraphic" in2="effect1_dropShadow_0_1" result="shape"/>
</filter>
<filter id="filter16_d_0_1" x="82.7057" y="97.3547" width="3.50358" height="3.50334" filterUnits="userSpaceOnUse" color-interpolation-filters="sRGB">
<feFlood flood-opacity="0" result="BackgroundImageFix"/>
<feColorMatrix in="SourceAlpha" type="matrix" values="0 0 0 0 0 0 0 0 0 0 0 0 0 0 0 0 0 0 127 0" result="hardAlpha"/>
<feOffset/>
<feGaussianBlur stdDeviation="0.147136"/>
<feComposite in2="hardAlpha" operator="out"/>
<feColorMatrix type="matrix" values="0 0 0 0 1 0 0 0 0 1 0 0 0 0 1 0 0 0 1 0"/>
<feBlend mode="normal" in2="BackgroundImageFix" result="effect1_dropShadow_0_1"/>
<feBlend mode="normal" in="SourceGraphic" in2="effect1_dropShadow_0_1" result="shape"/>
</filter>
<filter id="filter17_d_0_1" x="99.7057" y="74.3547" width="3.50358" height="3.50334" filterUnits="userSpaceOnUse" color-interpolation-filters="sRGB">
<feFlood flood-opacity="0" result="BackgroundImageFix"/>
<feColorMatrix in="SourceAlpha" type="matrix" values="0 0 0 0 0 0 0 0 0 0 0 0 0 0 0 0 0 0 127 0" result="hardAlpha"/>
<feOffset/>
<feGaussianBlur stdDeviation="0.147136"/>
<feComposite in2="hardAlpha" operator="out"/>
<feColorMatrix type="matrix" values="0 0 0 0 1 0 0 0 0 1 0 0 0 0 1 0 0 0 1 0"/>
<feBlend mode="normal" in2="BackgroundImageFix" result="effect1_dropShadow_0_1"/>
<feBlend mode="normal" in="SourceGraphic" in2="effect1_dropShadow_0_1" result="shape"/>
</filter>
<filter id="filter18_d_0_1" x="109.706" y="90.3547" width="3.50358" height="3.50334" filterUnits="userSpaceOnUse" color-interpolation-filters="sRGB">
<feFlood flood-opacity="0" result="BackgroundImageFix"/>
<feColorMatrix in="SourceAlpha" type="matrix" values="0 0 0 0 0 0 0 0 0 0 0 0 0 0 0 0 0 0 127 0" result="hardAlpha"/>
<feOffset/>
<feGaussianBlur stdDeviation="0.147136"/>
<feComposite in2="hardAlpha" operator="out"/>
<feColorMatrix type="matrix" values="0 0 0 0 1 0 0 0 0 1 0 0 0 0 1 0 0 0 1 0"/>
<feBlend mode="normal" in2="BackgroundImageFix" result="effect1_dropShadow_0_1"/>
<feBlend mode="normal" in="SourceGraphic" in2="effect1_dropShadow_0_1" result="shape"/>
</filter>
<filter id="filter19_d_0_1" x="87.7057" y="111.355" width="3.50358" height="3.50334" filterUnits="userSpaceOnUse" color-interpolation-filters="sRGB">
<feFlood flood-opacity="0" result="BackgroundImageFix"/>
<feColorMatrix in="SourceAlpha" type="matrix" values="0 0 0 0 0 0 0 0 0 0 0 0 0 0 0 0 0 0 127 0" result="hardAlpha"/>
<feOffset/>
<feGaussianBlur stdDeviation="0.147136"/>
<feComposite in2="hardAlpha" operator="out"/>
<feColorMatrix type="matrix" values="0 0 0 0 1 0 0 0 0 1 0 0 0 0 1 0 0 0 1 0"/>
<feBlend mode="normal" in2="BackgroundImageFix" result="effect1_dropShadow_0_1"/>
<feBlend mode="normal" in="SourceGraphic" in2="effect1_dropShadow_0_1" result="shape"/>
</filter>
<filter id="filter20_d_0_1" x="88.7057" y="119.706" width="3.50358" height="3.50334" filterUnits="userSpaceOnUse" color-interpolation-filters="sRGB">
<feFlood flood-opacity="0" result="BackgroundImageFix"/>
<feColorMatrix in="SourceAlpha" type="matrix" values="0 0 0 0 0 0 0 0 0 0 0 0 0 0 0 0 0 0 127 0" result="hardAlpha"/>
<feOffset/>
<feGaussianBlur stdDeviation="0.147136"/>
<feComposite in2="hardAlpha" operator="out"/>
<feColorMatrix type="matrix" values="0 0 0 0 1 0 0 0 0 1 0 0 0 0 1 0 0 0 1 0"/>
<feBlend mode="normal" in2="BackgroundImageFix" result="effect1_dropShadow_0_1"/>
<feBlend mode="normal" in="SourceGraphic" in2="effect1_dropShadow_0_1" result="shape"/>
</filter>
<filter id="filter21_d_0_1" x="140.706" y="109.355" width="3.50358" height="3.50334" filterUnits="userSpaceOnUse" color-interpolation-filters="sRGB">
<feFlood flood-opacity="0" result="BackgroundImageFix"/>
<feColorMatrix in="SourceAlpha" type="matrix" values="0 0 0 0 0 0 0 0 0 0 0 0 0 0 0 0 0 0 127 0" result="hardAlpha"/>
<feOffset/>
<feGaussianBlur stdDeviation="0.147136"/>
<feComposite in2="hardAlpha" operator="out"/>
<feColorMatrix type="matrix" values="0 0 0 0 1 0 0 0 0 1 0 0 0 0 1 0 0 0 1 0"/>
<feBlend mode="normal" in2="BackgroundImageFix" result="effect1_dropShadow_0_1"/>
<feBlend mode="normal" in="SourceGraphic" in2="effect1_dropShadow_0_1" result="shape"/>
</filter>
<filter id="filter22_d_0_1" x="155.706" y="102.355" width="3.50358" height="3.50334" filterUnits="userSpaceOnUse" color-interpolation-filters="sRGB">
<feFlood flood-opacity="0" result="BackgroundImageFix"/>
<feColorMatrix in="SourceAlpha" type="matrix" values="0 0 0 0 0 0 0 0 0 0 0 0 0 0 0 0 0 0 127 0" result="hardAlpha"/>
<feOffset/>
<feGaussianBlur stdDeviation="0.147136"/>
<feComposite in2="hardAlpha" operator="out"/>
<feColorMatrix type="matrix" values="0 0 0 0 1 0 0 0 0 1 0 0 0 0 1 0 0 0 1 0"/>
<feBlend mode="normal" in2="BackgroundImageFix" result="effect1_dropShadow_0_1"/>
<feBlend mode="normal" in="SourceGraphic" in2="effect1_dropShadow_0_1" result="shape"/>
</filter>
<filter id="filter23_d_0_1" x="98.7057" y="93.3547" width="3.50358" height="3.50334" filterUnits="userSpaceOnUse" color-interpolation-filters="sRGB">
<feFlood flood-opacity="0" result="BackgroundImageFix"/>
<feColorMatrix in="SourceAlpha" type="matrix" values="0 0 0 0 0 0 0 0 0 0 0 0 0 0 0 0 0 0 127 0" result="hardAlpha"/>
<feOffset/>
<feGaussianBlur stdDeviation="0.147136"/>
<feComposite in2="hardAlpha" operator="out"/>
<feColorMatrix type="matrix" values="0 0 0 0 1 0 0 0 0 1 0 0 0 0 1 0 0 0 1 0"/>
<feBlend mode="normal" in2="BackgroundImageFix" result="effect1_dropShadow_0_1"/>
<feBlend mode="normal" in="SourceGraphic" in2="effect1_dropShadow_0_1" result="shape"/>
</filter>
<filter id="filter24_d_0_1" x="123.1" y="112.1" width="10.715" height="10.7148" filterUnits="userSpaceOnUse" color-interpolation-filters="sRGB">
<feFlood flood-opacity="0" result="BackgroundImageFix"/>
<feColorMatrix in="SourceAlpha" type="matrix" values="0 0 0 0 0 0 0 0 0 0 0 0 0 0 0 0 0 0 127 0" result="hardAlpha"/>
<feOffset/>
<feGaussianBlur stdDeviation="0.45"/>
<feComposite in2="hardAlpha" operator="out"/>
<feColorMatrix type="matrix" values="0 0 0 0 1 0 0 0 0 1 0 0 0 0 1 0 0 0 1 0"/>
<feBlend mode="normal" in2="BackgroundImageFix" result="effect1_dropShadow_0_1"/>
<feBlend mode="normal" in="SourceGraphic" in2="effect1_dropShadow_0_1" result="shape"/>
</filter>
<filter id="filter25_d_0_1" x="131.1" y="101.1" width="10.715" height="10.7148" filterUnits="userSpaceOnUse" color-interpolation-filters="sRGB">
<feFlood flood-opacity="0" result="BackgroundImageFix"/>
<feColorMatrix in="SourceAlpha" type="matrix" values="0 0 0 0 0 0 0 0 0 0 0 0 0 0 0 0 0 0 127 0" result="hardAlpha"/>
<feOffset/>
<feGaussianBlur stdDeviation="0.45"/>
<feComposite in2="hardAlpha" operator="out"/>
<feColorMatrix type="matrix" values="0 0 0 0 1 0 0 0 0 1 0 0 0 0 1 0 0 0 1 0"/>
<feBlend mode="normal" in2="BackgroundImageFix" result="effect1_dropShadow_0_1"/>
<feBlend mode="normal" in="SourceGraphic" in2="effect1_dropShadow_0_1" result="shape"/>
</filter>
<filter id="filter26_d_0_1" x="143.1" y="100.749" width="10.715" height="10.7148" filterUnits="userSpaceOnUse" color-interpolation-filters="sRGB">
<feFlood flood-opacity="0" result="BackgroundImageFix"/>
<feColorMatrix in="SourceAlpha" type="matrix" values="0 0 0 0 0 0 0 0 0 0 0 0 0 0 0 0 0 0 127 0" result="hardAlpha"/>
<feOffset/>
<feGaussianBlur stdDeviation="0.45"/>
<feComposite in2="hardAlpha" operator="out"/>
<feColorMatrix type="matrix" values="0 0 0 0 1 0 0 0 0 1 0 0 0 0 1 0 0 0 1 0"/>
<feBlend mode="normal" in2="BackgroundImageFix" result="effect1_dropShadow_0_1"/>
<feBlend mode="normal" in="SourceGraphic" in2="effect1_dropShadow_0_1" result="shape"/>
</filter>
<filter id="filter27_d_0_1" x="121.1" y="84.7489" width="10.715" height="10.7148" filterUnits="userSpaceOnUse" color-interpolation-filters="sRGB">
<feFlood flood-opacity="0" result="BackgroundImageFix"/>
<feColorMatrix in="SourceAlpha" type="matrix" values="0 0 0 0 0 0 0 0 0 0 0 0 0 0 0 0 0 0 127 0" result="hardAlpha"/>
<feOffset/>
<feGaussianBlur stdDeviation="0.45"/>
<feComposite in2="hardAlpha" operator="out"/>
<feColorMatrix type="matrix" values="0 0 0 0 1 0 0 0 0 1 0 0 0 0 1 0 0 0 1 0"/>
<feBlend mode="normal" in2="BackgroundImageFix" result="effect1_dropShadow_0_1"/>
<feBlend mode="normal" in="SourceGraphic" in2="effect1_dropShadow_0_1" result="shape"/>
</filter>
<filter id="filter28_d_0_1" x="131.1" y="74.7489" width="10.715" height="10.7148" filterUnits="userSpaceOnUse" color-interpolation-filters="sRGB">
<feFlood flood-opacity="0" result="BackgroundImageFix"/>
<feColorMatrix in="SourceAlpha" type="matrix" values="0 0 0 0 0 0 0 0 0 0 0 0 0 0 0 0 0 0 127 0" result="hardAlpha"/>
<feOffset/>
<feGaussianBlur stdDeviation="0.45"/>
<feComposite in2="hardAlpha" operator="out"/>
<feColorMatrix type="matrix" values="0 0 0 0 1 0 0 0 0 1 0 0 0 0 1 0 0 0 1 0"/>
<feBlend mode="normal" in2="BackgroundImageFix" result="effect1_dropShadow_0_1"/>
<feBlend mode="normal" in="SourceGraphic" in2="effect1_dropShadow_0_1" result="shape"/>
</filter>
<filter id="filter29_d_0_1" x="109.1" y="74.7489" width="10.715" height="10.7148" filterUnits="userSpaceOnUse" color-interpolation-filters="sRGB">
<feFlood flood-opacity="0" result="BackgroundImageFix"/>
<feColorMatrix in="SourceAlpha" type="matrix" values="0 0 0 0 0 0 0 0 0 0 0 0 0 0 0 0 0 0 127 0" result="hardAlpha"/>
<feOffset/>
<feGaussianBlur stdDeviation="0.45"/>
<feComposite in2="hardAlpha" operator="out"/>
<feColorMatrix type="matrix" values="0 0 0 0 1 0 0 0 0 1 0 0 0 0 1 0 0 0 1 0"/>
<feBlend mode="normal" in2="BackgroundImageFix" result="effect1_dropShadow_0_1"/>
<feBlend mode="normal" in="SourceGraphic" in2="effect1_dropShadow_0_1" result="shape"/>
</filter>
<filter id="filter30_d_0_1" x="85.1" y="93.7489" width="10.715" height="10.7148" filterUnits="userSpaceOnUse" color-interpolation-filters="sRGB">
<feFlood flood-opacity="0" result="BackgroundImageFix"/>
<feColorMatrix in="SourceAlpha" type="matrix" values="0 0 0 0 0 0 0 0 0 0 0 0 0 0 0 0 0 0 127 0" result="hardAlpha"/>
<feOffset/>
<feGaussianBlur stdDeviation="0.45"/>
<feComposite in2="hardAlpha" operator="out"/>
<feColorMatrix type="matrix" values="0 0 0 0 1 0 0 0 0 1 0 0 0 0 1 0 0 0 1 0"/>
<feBlend mode="normal" in2="BackgroundImageFix" result="effect1_dropShadow_0_1"/>
<feBlend mode="normal" in="SourceGraphic" in2="effect1_dropShadow_0_1" result="shape"/>
</filter>
<filter id="filter31_d_0_1" x="132.6" y="73.6" width="30.8" height="30.8" filterUnits="userSpaceOnUse" color-interpolation-filters="sRGB">
<feFlood flood-opacity="0" result="BackgroundImageFix"/>
<feColorMatrix in="SourceAlpha" type="matrix" values="0 0 0 0 0 0 0 0 0 0 0 0 0 0 0 0 0 0 127 0" result="hardAlpha"/>
<feOffset/>
<feGaussianBlur stdDeviation="2.2"/>
<feComposite in2="hardAlpha" operator="out"/>
<feColorMatrix type="matrix" values="0 0 0 0 1 0 0 0 0 1 0 0 0 0 1 0 0 0 1 0"/>
<feBlend mode="normal" in2="BackgroundImageFix" result="effect1_dropShadow_0_1"/>
<feBlend mode="normal" in="SourceGraphic" in2="effect1_dropShadow_0_1" result="shape"/>
</filter>
<filter id="filter32_d_0_1" x="22.4273" y="50.0338" width="195.799" height="113.524" filterUnits="userSpaceOnUse" color-interpolation-filters="sRGB">
<feFlood flood-opacity="0" result="BackgroundImageFix"/>
<feColorMatrix in="SourceAlpha" type="matrix" values="0 0 0 0 0 0 0 0 0 0 0 0 0 0 0 0 0 0 127 0" result="hardAlpha"/>
<feOffset/>
<feGaussianBlur stdDeviation="2.3"/>
<feComposite in2="hardAlpha" operator="out"/>
<feColorMatrix type="matrix" values="0 0 0 0 0.266667 0 0 0 0 0.4 0 0 0 0 0.937255 0 0 0 1 0"/>
<feBlend mode="normal" in2="BackgroundImageFix" result="effect1_dropShadow_0_1"/>
<feBlend mode="normal" in="SourceGraphic" in2="effect1_dropShadow_0_1" result="shape"/>
</filter>
<linearGradient id="paint0_linear_0_1" x1="118.5" y1="-355" x2="118.5" y2="608" gradientUnits="userSpaceOnUse">
<stop offset="0.3" stop-color="#0F152F"/>
<stop offset="1" stop-color="#384681"/>
</linearGradient>
<linearGradient id="paint1_linear_0_1" x1="119" y1="-396" x2="119" y2="680" gradientUnits="userSpaceOnUse">
<stop offset="0.3" stop-color="#0F152F"/>
<stop offset="1" stop-color="#384681"/>
</linearGradient>
<linearGradient id="paint2_linear_0_1" x1="120.5" y1="-256.5" x2="120.5" y2="337.5" gradientUnits="userSpaceOnUse">
<stop offset="0.05" stop-color="#788AD2"/>
<stop offset="0.6" stop-color="#3F4E8B"/>
</linearGradient>
<linearGradient id="paint3_linear_0_1" x1="120.456" y1="-35" x2="120.456" y2="283.5" gradientUnits="userSpaceOnUse">
<stop offset="0.176865" stop-color="#0F152F"/>
<stop offset="0.634977" stop-color="#384681"/>
</linearGradient>
<linearGradient id="paint4_linear_0_1" x1="120.5" y1="64.5637" x2="120.5" y2="150.649" gradientUnits="userSpaceOnUse">
<stop stop-color="#384681"/>
<stop offset="1" stop-color="#0F152F"/>
</linearGradient>
<linearGradient id="paint5_linear_0_1" x1="120.5" y1="62" x2="120.5" y2="128.66" gradientUnits="userSpaceOnUse">
<stop stop-color="#4466EF"/>
<stop offset="1" stop-color="#273B89"/>
</linearGradient>
<linearGradient id="paint6_linear_0_1" x1="120.5" y1="62" x2="120.5" y2="128.66" gradientUnits="userSpaceOnUse">
<stop stop-color="#4466EF"/>
<stop offset="1" stop-color="#273B89"/>
</linearGradient>
</defs>
</svg>
